<?xml version="1.0" encoding="utf-8"?>
<!-- Generator: Adobe Illustrator 16.0.0, SVG Export Plug-In . SVG Version: 6.00 Build 0)  -->
<!DOCTYPE svg PUBLIC "-//W3C//DTD SVG 1.1//EN" "http://www.w3.org/Graphics/SVG/1.1/DTD/svg11.dtd">
<svg version="1.1" id="Layer_1" xmlns="http://www.w3.org/2000/svg" xmlns:xlink="http://www.w3.org/1999/xlink" x="0px" y="0px"
	 width="512px" height="512px" viewBox="0 0 512 512" enable-background="new 0 0 512 512" xml:space="preserve">
<path id="twitter-4-icon" stroke="#000000" stroke-miterlimit="10" d="M256,50C142.229,50,50,142.229,50,256
	c0,113.771,92.229,206,206,206c113.771,0,206-92.229,206-206C462,142.229,369.771,50,256,50z"/>
<g>
	<path id="LinkedIn" fill="#F9F9F9" d="M376.489,266.812v83.176h-48.22v-77.604c0-19.495-6.974-32.799-24.43-32.799
		c-13.323,0-21.253,8.965-24.74,17.639c-1.272,3.102-1.601,7.417-1.601,11.758v81.007h-48.236c0,0,0.65-131.437,0-145.054h48.232
		v20.561c-0.098,0.154-0.226,0.32-0.317,0.469h0.317v-0.469c6.409-9.869,17.853-23.968,43.467-23.968
		C352.698,201.526,376.489,222.258,376.489,266.812z M178.807,135.01c-16.502,0-27.295,10.824-27.295,25.057
		c0,13.923,10.481,25.075,26.654,25.075h0.323c16.821,0,27.282-11.15,27.282-25.075C205.454,145.834,195.31,135.01,178.807,135.01z
		 M154.377,349.988h48.218V204.934h-48.218V349.988z"/>
</g>
</svg>
