<?xml version="1.0" encoding="utf-8"?>
<!-- Generator: Adobe Illustrator 16.0.0, SVG Export Plug-In . SVG Version: 6.00 Build 0)  -->
<!DOCTYPE svg PUBLIC "-//W3C//DTD SVG 1.1//EN" "http://www.w3.org/Graphics/SVG/1.1/DTD/svg11.dtd">
<svg version="1.1" id="Layer_1" xmlns="http://www.w3.org/2000/svg" xmlns:xlink="http://www.w3.org/1999/xlink" x="0px" y="0px"
	 width="512px" height="512px" viewBox="0 0 512 512" enable-background="new 0 0 512 512" xml:space="preserve">
<path id="twitter-4-icon" stroke="#000000" stroke-miterlimit="10" d="M256,50C142.229,50,50,142.229,50,256
	c0,113.771,92.229,206,206,206c113.771,0,206-92.229,206-206C462,142.229,369.771,50,256,50z"/>
<g>
	<path fill="#F4F2F2" d="M171.612,344.022h170.775c9.853,0,17.684-7.832,17.684-17.683V202.553c0-9.853-7.831-17.684-17.684-17.684
		H171.612c-9.853,0-17.684,7.832-17.684,17.684V326.34C153.928,336.19,161.76,344.022,171.612,344.022z M342.388,328.865H171.612
		c-1.516,0-2.526-1.011-2.526-2.525V206.342l82.861,73.26c1.516,1.265,3.284,2.021,5.053,2.021s3.537-0.757,5.053-2.021
		l82.861-73.26V326.34C344.914,327.854,343.651,328.865,342.388,328.865z M184.749,200.026h144.25L257,263.688L184.749,200.026z"/>
</g>
</svg>
