<?xml version="1.0" encoding="utf-8"?>
<!-- Generator: Adobe Illustrator 16.0.0, SVG Export Plug-In . SVG Version: 6.00 Build 0)  -->
<!DOCTYPE svg PUBLIC "-//W3C//DTD SVG 1.1//EN" "http://www.w3.org/Graphics/SVG/1.1/DTD/svg11.dtd">
<svg version="1.1" id="Layer_1" xmlns="http://www.w3.org/2000/svg" xmlns:xlink="http://www.w3.org/1999/xlink" x="0px" y="0px"
	 width="512px" height="512px" viewBox="0 0 512 512" enable-background="new 0 0 512 512" xml:space="preserve">
<path id="twitter-4-icon" fill="#F4F4F4" stroke="#000000" stroke-miterlimit="10" d="M256,50C142.229,50,50,142.229,50,256
	c0,113.771,92.229,206,206,206c113.771,0,206-92.229,206-206C462,142.229,369.771,50,256,50z"/>
<g>
	<path d="M256,50C142.23,50,50,142.229,50,256c0,113.77,92.227,206,206,206c113.771,0,206-92.229,206-206
		C462,142.229,369.771,50,256,50z M275.973,325.251c-18.717-1.455-26.57-10.724-41.241-19.639
		c-8.071,42.318-17.93,82.891-47.129,104.081c-9.015-63.957,13.233-111.996,23.565-162.994
		c-17.617-29.655,2.119-89.334,39.276-74.625c45.717,18.084-39.59,110.246,17.675,121.756
		c59.798,12.018,84.207-103.748,47.132-141.395c-53.576-54.357-155.947-1.239-143.359,76.59c3.064,19.027,22.721,24.8,7.855,51.057
		c-34.288-7.599-44.52-34.642-43.202-70.696c2.118-59.014,53.023-100.33,104.082-106.044
		c64.568-7.228,125.172,23.701,133.539,84.443C383.584,256.34,345.017,330.589,275.973,325.251z"/>
</g>
</svg>
