<?xml version="1.0" encoding="utf-8"?>
<!-- Generator: Adobe Illustrator 16.0.0, SVG Export Plug-In . SVG Version: 6.00 Build 0)  -->
<!DOCTYPE svg PUBLIC "-//W3C//DTD SVG 1.1//EN" "http://www.w3.org/Graphics/SVG/1.1/DTD/svg11.dtd">
<svg version="1.1" id="Layer_1" xmlns="http://www.w3.org/2000/svg" xmlns:xlink="http://www.w3.org/1999/xlink" x="0px" y="0px"
	 width="512px" height="512px" viewBox="0 0 512 512" enable-background="new 0 0 512 512" xml:space="preserve">
<path id="twitter-4-icon" stroke="#000000" stroke-miterlimit="10" d="M256,50C142.229,50,50,142.229,50,256
	c0,113.771,92.229,206,206,206c113.771,0,206-92.229,206-206C462,142.229,369.771,50,256,50z"/>
<g>
	<g>
		<path fill="#F9F7F7" d="M322.514,271.852H191.487c-1.976,0-3.574-1.6-3.574-3.575c0-1.975,1.599-3.574,3.574-3.574h131.026
			c1.975,0,3.574,1.6,3.574,3.574C326.088,270.252,324.488,271.852,322.514,271.852z"/>
	</g>
	<g>
		<path fill="#F9F7F7" d="M322.514,298.355H191.487c-1.976,0-3.574-1.6-3.574-3.574c0-1.976,1.599-3.574,3.574-3.574h131.026
			c1.975,0,3.574,1.599,3.574,3.574C326.088,296.756,324.488,298.355,322.514,298.355z"/>
	</g>
	<g>
		<path fill="#F9F7F7" d="M322.514,324.859H191.487c-1.976,0-3.574-1.6-3.574-3.574c0-1.976,1.599-3.575,3.574-3.575h131.026
			c1.975,0,3.574,1.6,3.574,3.575C326.088,323.26,324.488,324.859,322.514,324.859z"/>
	</g>
	<g>
		<path fill="#F9F7F7" d="M322.514,351.362H191.487c-1.976,0-3.574-1.598-3.574-3.574c0-1.976,1.599-3.575,3.574-3.575h131.026
			c1.975,0,3.574,1.6,3.574,3.575C326.088,349.762,324.488,351.362,322.514,351.362z"/>
	</g>
	<path fill="#F9F7F7" d="M343.075,176.435l-35.165-35.168c-1.326-1.326-3.127-2.071-5.004-2.069l-122.139,0.14
		c-6.575,0-11.911,5.336-11.911,11.912v209.641c0,6.578,5.334,11.911,11.911,11.911h152.465c6.578,0,11.912-5.333,11.912-11.911
		V181.428C345.145,179.554,344.402,177.758,343.075,176.435z M337.998,360.891c0,2.622-2.143,4.766-4.766,4.766H180.767
		c-2.621,0-4.765-2.144-4.765-4.766V151.25c0-2.622,2.144-4.766,4.765-4.766h118.916c0.768,0,1.389,0.623,1.389,1.389v26.007
		c0,5.264,4.267,9.529,9.527,9.529h26.009c0.769,0,1.389,0.623,1.389,1.389v176.093H337.998z"/>
	<g>
		<path fill="#F9F7F7" d="M322.514,245.351H191.487c-1.976,0-3.574-1.599-3.574-3.575c0-1.975,1.599-3.574,3.574-3.574h131.026
			c1.975,0,3.574,1.599,3.574,3.574C326.088,243.751,324.488,245.351,322.514,245.351z"/>
	</g>
	<g>
		<path fill="#F9F7F7" d="M322.514,218.847H191.487c-1.976,0-3.574-1.599-3.574-3.574s1.599-3.574,3.574-3.574h131.026
			c1.975,0,3.574,1.599,3.574,3.574S324.488,218.847,322.514,218.847z"/>
	</g>
</g>
</svg>
