<?xml version="1.0" encoding="utf-8"?>
<!-- Generator: Adobe Illustrator 22.0.1, SVG Export Plug-In . SVG Version: 6.00 Build 0)  -->
<svg version="1.1" id="Layer_1" xmlns="http://www.w3.org/2000/svg" xmlns:xlink="http://www.w3.org/1999/xlink" x="0px" y="0px"
	 viewBox="0 0 512 512" style="enable-background:new 0 0 512 512;" xml:space="preserve">
<style type="text/css">
	.st0{stroke:#000000;stroke-miterlimit:10;}
	.st1{fill:#FCFCFC;}
</style>
<path id="twitter-4-icon" class="st0" d="M256,50C142.2,50,50,142.2,50,256s92.2,206,206,206s206-92.2,206-206S369.8,50,256,50z"/>
<g>
	<path class="st1" d="M256,157.6c30.5,0,34.1,0.1,46.1,0.7c11.1,0.5,17.2,2.4,21.2,3.9c5.3,2.1,9.1,4.5,13.1,8.5
		c4,4,6.5,7.8,8.5,13.1c1.6,4,3.4,10.1,3.9,21.2c0.5,12,0.7,15.6,0.7,46.1s-0.1,34.1-0.7,46.1c-0.5,11.1-2.4,17.2-3.9,21.2
		c-2.1,5.3-4.5,9.1-8.5,13.1c-4,4-7.8,6.5-13.1,8.5c-4,1.6-10.1,3.4-21.2,3.9c-12,0.5-15.6,0.7-46.1,0.7s-34.1-0.1-46.1-0.7
		c-11.1-0.5-17.2-2.4-21.2-3.9c-5.3-2.1-9.1-4.5-13.1-8.5c-4-4-6.5-7.8-8.5-13.1c-1.6-4-3.4-10.1-3.9-21.2
		c-0.5-12-0.7-15.6-0.7-46.1s0.1-34.1,0.7-46.1c0.5-11.1,2.4-17.2,3.9-21.2c2.1-5.3,4.5-9.1,8.5-13.1c4-4,7.8-6.5,13.1-8.5
		c4-1.6,10.1-3.4,21.2-3.9C221.9,157.7,225.5,157.6,256,157.6 M256,137c-31,0-34.9,0.1-47,0.7c-12.1,0.6-20.4,2.5-27.7,5.3
		c-7.5,2.9-13.9,6.8-20.2,13.2c-6.3,6.3-10.2,12.7-13.2,20.2c-2.8,7.3-4.7,15.5-5.3,27.7c-0.6,12.2-0.7,16.1-0.7,47
		c0,31,0.1,34.9,0.7,47c0.6,12.1,2.5,20.4,5.3,27.7c2.9,7.5,6.8,13.9,13.2,20.2c6.3,6.3,12.7,10.2,20.2,13.2
		c7.3,2.8,15.5,4.7,27.7,5.3c12.2,0.6,16.1,0.7,47,0.7s34.9-0.1,47-0.7c12.1-0.6,20.4-2.5,27.7-5.3c7.5-2.9,13.9-6.8,20.2-13.2
		c6.3-6.3,10.2-12.7,13.2-20.2c2.8-7.3,4.7-15.5,5.3-27.7c0.6-12.2,0.7-16.1,0.7-47s-0.1-34.9-0.7-47c-0.6-12.1-2.5-20.4-5.3-27.7
		c-2.9-7.5-6.8-13.9-13.2-20.2c-6.3-6.3-12.7-10.2-20.2-13.2c-7.3-2.8-15.5-4.7-27.7-5.3C290.9,137.2,287,137,256,137L256,137z"/>
	<path class="st1" d="M256,192.5c-32.3,0-58.6,26.2-58.6,58.6s26.2,58.6,58.6,58.6s58.6-26.2,58.6-58.6S288.3,192.5,256,192.5z
		 M256,289.1c-21,0-38-17-38-38s17-38,38-38c21,0,38,17,38,38S277,289.1,256,289.1z"/>
	<circle class="st1" cx="316.9" cy="190.2" r="13.7"/>
</g>
</svg>
