<?xml version="1.0" encoding="utf-8"?>
<!-- Generator: Adobe Illustrator 16.0.0, SVG Export Plug-In . SVG Version: 6.00 Build 0)  -->
<!DOCTYPE svg PUBLIC "-//W3C//DTD SVG 1.1//EN" "http://www.w3.org/Graphics/SVG/1.1/DTD/svg11.dtd">
<svg version="1.1" id="Layer_1" xmlns="http://www.w3.org/2000/svg" xmlns:xlink="http://www.w3.org/1999/xlink" x="0px" y="0px"
	 width="300px" height="100px" viewBox="275 100 300 100" enable-background="new 275 100 300 100" xml:space="preserve">
<g>
	<path fill="#FFFFFF" d="M257.017,209.458c0-36.621,0-73.24,0-109.861c102.994,0,205.988,0,308.983,0c0,36.621,0,73.24,0,109.861
		C463.005,209.458,360.011,209.458,257.017,209.458z M366.492,184.654c-0.491-9.475-1.115-18.708-1.395-27.954
		c-0.168-5.571,3.495-6.76,8.237-6.259c7.243,0.762,14.481,1.991,21.738,2.115c13.99,0.239,13.994-0.023,16.592,13.74
		c0.019,0.1,0.406,0.127,1.148,0.333c0-3.363,0-6.596,0-9.975c5.979,1.748,11.457,3.349,16.938,4.951
		c0.099-0.312,0.199-0.625,0.3-0.937c-5.102-1.923-10.204-3.847-15.307-5.769c0.219-0.723,0.436-1.441,0.654-2.163
		c2.547-0.458,5.096-0.916,7.642-1.374c-10.744-0.543-10.361-0.584-11.522-11.178c-1.272-11.621-3.345-23.153-5.066-34.723
		c-0.884,0.114-1.767,0.229-2.649,0.343c4.67,14.552,7.22,29.29,5.523,45.777c-14.488-0.855-28.415-1.679-41.612-2.458
		c-2.407-7.983-4.585-15.212-6.766-22.44c0.051,5.035,0.693,9.994,1.04,14.975c0.584,8.373-5.731,13.047-13.506,10.519
		c-2.058-0.671-4.65-0.091-6.916,0.343c-3.901,0.749-7.739,1.833-12.092,2.896c0.494-2.615,0.768-4.075,1.166-6.181
		c-6.877,2.544-12.987,5.652-19.462,7.007c-10.642,2.227-14.765-0.231-17.064-8.656c9.462-0.753,18.854-1.499,28.247-2.245
		c-10.122-2.367-20.699,3.301-30.314-2.325c-0.537,10.965,4.09,16.219,15.06,15.487c4.295-0.285,8.527-1.441,12.805-2.086
		c2.448-0.369,4.929-0.546,7.398-0.746c11.861-0.961,24.106,0.982,36.998-5.565c0,14.604,0,28.353,0,42.101
		c0.731,0.218,1.461,0.438,2.191,0.66c2.718-1.921,5.435-3.837,9.815-6.925C371.829,185.354,369.652,185.068,366.492,184.654z
		 M560.409,153.508c-9.262,0-19.146-0.148-29.022,0.038c-12.232,0.229-12.225,0.351-12.717-11.726
		c-0.012-0.298-0.561-0.577-0.854-0.86c-9.083,14.002-9.819,14.441-14.396,8.956c-2.704,1.586-5.237,4.135-8.055,4.496
		c-5.052,0.654-10.449-0.881-15.379,0.105c-6.247,1.252-7.2-2.195-7.754-6.544c-0.344-2.703-0.063-5.482-0.063-8.229
		c-2.222,0.653-3.115,1.508-2.967,2.104c2.345,9.474-0.138,12.569-9.781,11.921c-3.13-0.212-6.248-0.842-9.371-0.82
		c-4.419,0.033-8.858,0.305-13.247,0.812c-6.7,0.771-4.847-6.295-8.116-9.007c0.368,7.874,3.382,12.306,11.742,10.995
		c2.224-0.35,4.685,0.434,6.792-0.16c7.835-2.205,15.531,1.865,23.985-1.006c5.997-2.036,14.163,2.318,21.942,3.941
		c0,1.002,0,3.402,0,5.806c0.647,0.103,1.296,0.204,1.943,0.307c0.538-1.669,0.745-3.565,1.692-4.957
		c1.38-2.032,2.968-4.601,5.04-5.345c4.76-1.709,9.864-2.453,13.248-3.229c3.098,1.642,5.686,4.199,8.227,4.158
		C535.83,155.049,548.348,154.145,560.409,153.508z M477.206,190.018c-4.932-5.847-10.789-7.917-17.999-5.625
		c-5.729,1.819-8.149-0.34-9.098-5.63c-0.163-0.906-0.641-1.759-1.135-3.062c-5.789,10.052-12.137,13.216-22.278,12.111
		c-9.56-1.044-19.152-2.15-28.748-2.362c-6.145-0.136-12.323,1.299-18.486,2.027c-0.062,0.593-0.125,1.182-0.188,1.772
		c1.041,0.228,2.179,0.844,3.111,0.618c6.005-1.465,12.067-6.287,17.796,0.752c0.354,0.434,2.069-0.26,3.156-0.399
		c5.954-0.771,11.93-2.283,17.859-2.129c9.775,0.256,20.019,3.959,26.454-5.213c3.639,1.504,7.166,4.401,9.376,3.608
		C464.685,183.748,471.046,185.358,477.206,190.018z"/>
	<path fill="#CB450F" d="M368.658,184.654c3.161,0.414,5.338,0.7,9.819,1.289c-4.38,3.088-7.097,5.004-9.815,6.925
		c-0.73-0.222-1.46-0.442-2.191-0.66c0-13.748,0-27.497,0-42.101c-12.891,6.547-25.136,4.604-36.997,5.565
		c-2.471,0.201-4.951,0.377-7.398,0.746c-4.278,0.645-8.511,1.801-12.805,2.086c-10.969,0.732-15.598-4.521-15.06-15.487
		c9.616,5.626,20.192-0.042,30.314,2.325c-9.394,0.746-18.785,1.492-28.247,2.245c2.3,8.424,6.423,10.882,17.065,8.656
		c6.475-1.355,12.584-4.463,19.461-7.007c-0.397,2.105-0.672,3.566-1.166,6.181c4.353-1.063,8.191-2.147,12.092-2.896
		c2.265-0.434,4.857-1.014,6.916-0.343c7.775,2.528,14.091-2.146,13.507-10.519c-0.347-4.981-0.989-9.941-1.039-14.975
		c2.18,7.228,4.358,14.458,6.765,22.44c13.198,0.779,27.125,1.603,41.612,2.458c1.697-16.488-0.853-31.226-5.523-45.777
		c0.883-0.114,1.766-0.229,2.649-0.343c1.723,11.57,3.795,23.103,5.066,34.723c1.161,10.594,0.778,10.635,11.522,11.178
		c-2.547,0.458-5.095,0.916-7.642,1.374c-0.219,0.722-0.436,1.44-0.653,2.163c5.102,1.922,10.205,3.846,15.307,5.769
		c-0.102,0.312-0.202,0.625-0.301,0.937c-5.479-1.603-10.959-3.203-16.938-4.951c0,3.379,0,6.611,0,9.975
		c-0.742-0.206-1.13-0.233-1.147-0.333c-2.599-13.764-2.602-13.501-16.593-13.74c-7.257-0.124-14.495-1.353-21.737-2.115
		c-4.742-0.5-8.405,0.688-8.236,6.259C367.543,165.946,368.167,175.18,368.658,184.654z"/>
	<path fill="#CB450F" d="M562.574,153.508c-12.061,0.637-24.578,1.541-37.109,1.756c-2.542,0.041-5.129-2.517-8.228-4.158
		c-3.384,0.775-8.489,1.52-13.248,3.228c-2.071,0.744-3.661,3.313-5.04,5.346c-0.947,1.392-1.154,3.288-1.692,4.957
		c-0.648-0.103-1.295-0.206-1.944-0.31c0-2.4,0-4.803,0-5.803c-7.777-1.623-15.943-5.978-21.942-3.941
		c-8.453,2.869-16.148-1.201-23.983,1.006c-2.107,0.594-4.569-0.189-6.791,0.158c-8.362,1.313-11.376-3.121-11.745-10.994
		c3.271,2.711,1.418,9.777,8.117,9.007c4.389-0.506,8.83-0.777,13.246-0.811c3.123-0.021,6.243,0.608,9.371,0.82
		c9.646,0.648,12.127-2.447,9.782-11.921c-0.147-0.596,0.744-1.452,2.968-2.105c0,2.746-0.28,5.525,0.064,8.229
		c0.552,4.35,1.505,7.797,7.751,6.545c4.931-0.986,10.328,0.549,15.382-0.105c2.815-0.363,5.348-2.91,8.053-4.496
		c4.578,5.485,5.313,5.047,14.396-8.956c0.294,0.282,0.842,0.561,0.854,0.86c0.492,12.076,0.484,11.955,12.718,11.726
		C543.43,153.359,553.312,153.508,562.574,153.508z"/>
	<path fill="#CB450F" d="M479.371,190.018c-6.159-4.659-12.521-6.27-20.179-3.531c-2.208,0.79-5.737-2.104-9.374-3.608
		c-6.438,9.172-16.68,5.469-26.455,5.213c-5.931-0.154-11.906,1.357-17.859,2.129c-1.087,0.14-2.803,0.833-3.156,0.399
		c-5.73-7.039-11.792-2.217-17.797-0.752c-0.932,0.226-2.069-0.391-3.11-0.618c0.062-0.591,0.126-1.18,0.188-1.772
		c6.163-0.729,12.341-2.163,18.485-2.027c9.597,0.212,19.188,1.318,28.748,2.362c10.143,1.104,16.492-2.06,22.279-12.111
		c0.494,1.304,0.972,2.156,1.135,3.062c0.948,5.29,3.368,7.449,9.098,5.63C468.584,182.101,474.44,184.171,479.371,190.018z"/>
</g>
</svg>
