<?xml version="1.0" encoding="utf-8"?>
<!-- Generator: Adobe Illustrator 16.0.0, SVG Export Plug-In . SVG Version: 6.00 Build 0)  -->
<!DOCTYPE svg PUBLIC "-//W3C//DTD SVG 1.1//EN" "http://www.w3.org/Graphics/SVG/1.1/DTD/svg11.dtd">
<svg version="1.1" id="Layer_1" xmlns="http://www.w3.org/2000/svg" xmlns:xlink="http://www.w3.org/1999/xlink" x="0px" y="0px"
	 width="850px" height="300px" viewBox="0 0 850 300" enable-background="new 0 0 850 300" xml:space="preserve">
<g>
	<path fill="#FFFFFF" d="M-33.466,312.169c0-101.447,0-202.891,0-304.338c285.317,0,570.635,0,855.956,0
		c0,101.447,0,202.891,0,304.338C537.169,312.169,251.851,312.169-33.466,312.169z M269.807,243.458
		c-1.36-26.248-3.088-51.828-3.862-77.44c-0.467-15.434,9.68-18.724,22.817-17.339c20.064,2.113,40.116,5.515,60.218,5.859
		c38.757,0.662,38.767-0.066,45.965,38.065c0.051,0.271,1.125,0.348,3.18,0.924c0-9.322,0-18.277,0-27.632
		c16.563,4.841,31.739,9.276,46.92,13.712c0.274-0.863,0.554-1.729,0.832-2.594c-14.133-5.326-28.268-10.655-42.402-15.981
		c0.604-1.998,1.205-3.992,1.811-5.992c7.055-1.268,14.115-2.537,21.167-3.805c-29.762-1.504-28.702-1.619-31.917-30.968
		c-3.525-32.192-9.265-64.139-14.036-96.191c-2.449,0.317-4.895,0.636-7.339,0.951c12.938,40.312,20.001,81.14,15.301,126.814
		c-40.135-2.371-78.716-4.651-115.276-6.813c-6.667-22.112-12.702-42.14-18.741-62.164c0.14,13.947,1.918,27.688,2.879,41.486
		c1.619,23.192-15.877,36.143-37.416,29.137c-5.702-1.857-12.884-0.252-19.158,0.953c-10.807,2.074-21.439,5.076-33.498,8.023
		c1.367-7.246,2.128-11.291,3.229-17.125c-19.051,7.048-35.976,15.654-53.913,19.412c-29.481,6.171-40.904-0.643-47.273-23.979
		c26.212-2.086,52.23-4.151,78.25-6.217c-28.04-6.558-57.341,9.145-83.978-6.442c-1.489,30.376,11.332,44.934,41.72,42.905
		c11.897-0.791,23.622-3.992,35.473-5.78c6.78-1.025,13.652-1.512,20.495-2.068c32.856-2.66,66.779,2.723,102.49-15.415
		c0,40.458,0,78.544,0,116.628c2.025,0.607,4.048,1.219,6.071,1.828c7.529-5.316,15.056-10.623,27.19-19.182
		C284.593,245.397,278.562,244.61,269.807,243.458z M807.001,157.176c-25.658,0-53.037-0.41-80.396,0.105
		c-33.888,0.637-33.867,0.969-35.23-32.482c-0.034-0.828-1.553-1.599-2.367-2.383c-25.164,38.789-27.2,40.007-39.881,24.81
		c-7.492,4.393-14.51,11.452-22.312,12.456c-13.997,1.811-28.949-2.441-42.606,0.291c-17.305,3.471-19.946-6.084-21.477-18.131
		c-0.954-7.488-0.177-15.188-0.177-22.795c-6.157,1.81-8.629,4.179-8.22,5.83c6.495,26.243-0.38,34.819-27.099,33.022
		c-8.667-0.584-17.309-2.332-25.961-2.27c-12.236,0.092-24.537,0.844-36.696,2.246c-18.558,2.133-13.428-17.44-22.483-24.952
		c1.022,21.811,9.369,34.091,32.532,30.456c6.157-0.965,12.977,1.203,18.814-0.441c21.705-6.111,43.024,5.165,66.443-2.787
		c16.616-5.639,39.237,6.421,60.787,10.917c0,2.777,0,9.428,0,16.082c1.794,0.285,3.587,0.568,5.383,0.855
		c1.49-4.625,2.065-9.881,4.688-13.736c3.821-5.629,8.223-12.743,13.963-14.806c13.184-4.73,27.325-6.793,36.699-8.941
		c8.583,4.547,15.75,11.633,22.792,11.516C738.912,161.443,773.589,158.941,807.001,157.176z M576.509,258.315
		c-13.659-16.195-29.885-21.93-49.86-15.582c-15.872,5.041-22.575-0.939-25.203-15.594c-0.451-2.516-1.773-4.877-3.143-8.488
		c-16.034,27.85-33.622,36.613-61.717,33.551c-26.483-2.887-53.056-5.951-79.639-6.543c-17.021-0.377-34.136,3.598-51.209,5.621
		c-0.173,1.637-0.348,3.271-0.521,4.906c2.884,0.629,6.036,2.34,8.617,1.713c16.637-4.055,33.428-17.416,49.302,2.086
		c0.977,1.201,5.732-0.723,8.743-1.111c16.492-2.135,33.046-6.324,49.473-5.898c27.083,0.707,55.458,10.971,73.287-14.438
		c10.077,4.162,19.851,12.188,25.969,9.994C541.821,240.946,559.447,245.409,576.509,258.315z"/>
	<path fill-rule="evenodd" clip-rule="evenodd" fill="#CB450F" d="M275.807,243.458c8.755,1.152,14.787,1.939,27.2,3.57
		c-12.135,8.559-19.661,13.865-27.19,19.182c-2.023-0.609-4.046-1.221-6.071-1.828c0-38.084,0-76.17,0-116.628
		c-35.71,18.137-69.633,12.754-102.49,15.415c-6.843,0.557-13.715,1.043-20.495,2.068c-11.851,1.788-23.576,4.989-35.473,5.78
		c-30.388,2.029-43.209-12.528-41.72-42.905c26.637,15.587,55.938-0.115,83.978,6.442c-26.021,2.065-52.039,4.131-78.25,6.217
		c6.37,23.336,17.792,30.15,47.273,23.979c17.938-3.758,34.862-12.363,53.913-19.412c-1.1,5.833-1.861,9.878-3.229,17.125
		c12.059-2.947,22.691-5.949,33.498-8.023c6.274-1.205,13.456-2.811,19.158-0.953c21.539,7.006,39.035-5.945,37.416-29.137
		c-0.961-13.799-2.739-27.54-2.879-41.486c6.039,20.024,12.074,40.052,18.741,62.164c36.56,2.162,75.141,4.442,115.276,6.813
		c4.7-45.674-2.363-86.501-15.301-126.814c2.445-0.315,4.891-0.634,7.339-0.951c4.771,32.053,10.511,64,14.036,96.191
		c3.215,29.35,2.155,29.464,31.917,30.968c-7.052,1.268-14.112,2.537-21.167,3.805c-0.605,2-1.207,3.994-1.811,5.992
		c14.135,5.326,28.27,10.655,42.402,15.981c-0.278,0.865-0.558,1.73-0.832,2.594c-15.181-4.436-30.356-8.871-46.92-13.712
		c0,9.354,0,18.31,0,27.632c-2.055-0.576-3.129-0.652-3.18-0.924c-7.198-38.132-7.208-37.403-45.965-38.065
		c-20.102-0.344-40.154-3.746-60.218-5.859c-13.137-1.385-23.284,1.906-22.817,17.339
		C272.719,191.63,274.447,217.21,275.807,243.458z"/>
	<path fill-rule="evenodd" clip-rule="evenodd" fill="#CB450F" d="M813.001,157.176c-33.412,1.766-68.089,4.268-102.803,4.861
		c-7.042,0.117-14.209-6.969-22.792-11.516c-9.374,2.148-23.516,4.211-36.699,8.941c-5.74,2.062-10.142,9.177-13.963,14.806
		c-2.623,3.855-3.198,9.111-4.688,13.736c-1.796-0.287-3.589-0.57-5.383-0.855c0-6.654,0-13.305,0-16.082
		c-21.55-4.496-44.171-16.556-60.787-10.917c-23.419,7.952-44.738-3.324-66.443,2.787c-5.838,1.645-12.657-0.523-18.814,0.441
		c-23.163,3.636-31.51-8.645-32.532-30.456c9.056,7.512,3.926,27.084,22.483,24.952c12.159-1.402,24.46-2.154,36.696-2.246
		c8.652-0.062,17.294,1.686,25.961,2.27c26.719,1.797,33.594-6.779,27.099-33.022c-0.409-1.651,2.062-4.021,8.22-5.83
		c0,7.607-0.777,15.307,0.177,22.795c1.53,12.047,4.172,21.602,21.477,18.131c13.657-2.732,28.609,1.52,42.606-0.291
		c7.802-1.004,14.819-8.062,22.312-12.456c12.681,15.198,14.717,13.979,39.881-24.81c0.814,0.784,2.333,1.555,2.367,2.383
		c1.363,33.451,1.343,33.119,35.23,32.482C759.964,156.766,787.343,157.176,813.001,157.176z"/>
	<path fill-rule="evenodd" clip-rule="evenodd" fill="#CB450F" d="M582.509,258.315c-17.062-12.906-34.688-17.369-55.901-9.783
		c-6.118,2.193-15.892-5.832-25.969-9.994c-17.829,25.408-46.204,15.145-73.287,14.438c-16.427-0.426-32.981,3.764-49.473,5.898
		c-3.011,0.389-7.766,2.312-8.743,1.111c-15.875-19.502-32.665-6.141-49.302-2.086c-2.581,0.627-5.733-1.084-8.617-1.713
		c0.174-1.635,0.349-3.27,0.521-4.906c17.073-2.023,34.188-5.998,51.209-5.621c26.583,0.592,53.155,3.656,79.639,6.543
		c28.095,3.062,45.683-5.701,61.717-33.551c1.369,3.611,2.691,5.973,3.143,8.488c2.628,14.654,9.331,20.635,25.203,15.594
		C552.624,236.386,568.85,242.12,582.509,258.315z"/>
</g>
</svg>
