<?xml version="1.0" encoding="utf-8"?>
<!-- Generator: Adobe Illustrator 16.0.0, SVG Export Plug-In . SVG Version: 6.00 Build 0)  -->
<!DOCTYPE svg PUBLIC "-//W3C//DTD SVG 1.1//EN" "http://www.w3.org/Graphics/SVG/1.1/DTD/svg11.dtd">
<svg version="1.1" id="Layer_1" xmlns="http://www.w3.org/2000/svg" xmlns:xlink="http://www.w3.org/1999/xlink" x="0px" y="0px"
	 width="250px" height="75px" viewBox="300 112.5 250 75" enable-background="new 300 112.5 250 75" xml:space="preserve">
<g>
	<path fill="#FFFFFF" d="M300,196.085c0-28.195,0-56.39,0-84.585c79.298,0,158.597,0,237.896,0c0,28.195,0,56.39,0,84.585
		C458.597,196.085,379.298,196.085,300,196.085z M384.289,176.988c-0.378-7.295-0.858-14.403-1.074-21.522
		c-0.129-4.29,2.69-5.205,6.342-4.819c5.577,0.586,11.149,1.532,16.736,1.628c10.771,0.184,10.775-0.018,12.774,10.579
		c0.015,0.076,0.313,0.099,0.885,0.257c0-2.59,0-5.079,0-7.681c4.603,1.347,8.82,2.578,13.04,3.812
		c0.076-0.239,0.153-0.481,0.231-0.721c-3.929-1.481-7.857-2.962-11.785-4.442c0.168-0.556,0.335-1.109,0.503-1.665
		c1.961-0.353,3.924-0.705,5.884-1.058c-8.272-0.418-7.978-0.45-8.87-8.606c-0.981-8.947-2.577-17.827-3.901-26.734
		c-0.681,0.088-1.361,0.176-2.041,0.264c3.595,11.204,5.559,22.551,4.253,35.246c-11.155-0.659-21.877-1.293-32.039-1.894
		c-1.853-6.146-3.531-11.713-5.209-17.277c0.039,3.876,0.534,7.694,0.8,11.53c0.45,6.446-4.413,10.044-10.399,8.099
		c-1.584-0.517-3.58-0.07-5.324,0.263c-3.004,0.577-5.958,1.411-9.311,2.23c0.38-2.013,0.592-3.138,0.898-4.759
		c-5.295,1.959-10,4.352-14.985,5.395c-8.193,1.715-11.368-0.178-13.138-6.664c7.285-0.58,14.516-1.154,21.748-1.729
		c-7.792-1.822-15.937,2.542-23.34-1.79c-0.414,8.442,3.149,12.488,11.595,11.924c3.307-0.22,6.565-1.11,9.859-1.606
		c1.885-0.284,3.795-0.42,5.696-0.574c9.131-0.739,18.56,0.756,28.485-4.285c0,11.245,0,21.831,0,32.416
		c0.562,0.167,1.125,0.337,1.688,0.508c2.092-1.479,4.184-2.954,7.557-5.332C388.397,177.527,386.722,177.307,384.289,176.988z
		 M533.59,153.007c-7.13,0-14.74-0.113-22.345,0.029c-9.418,0.178-9.411,0.271-9.79-9.027c-0.01-0.229-0.433-0.444-0.658-0.663
		c-6.993,10.781-7.561,11.119-11.084,6.896c-2.083,1.221-4.033,3.185-6.201,3.462c-3.891,0.504-8.046-0.678-11.842,0.081
		c-4.809,0.964-5.543-1.69-5.97-5.039c-0.265-2.081-0.049-4.221-0.049-6.335c-1.711,0.502-2.398,1.162-2.285,1.62
		c1.807,7.293-0.105,9.677-7.529,9.178c-2.411-0.163-4.812-0.647-7.216-0.632c-3.402,0.025-6.82,0.234-10.199,0.625
		c-5.158,0.594-3.731-4.847-6.249-6.935c0.283,6.062,2.604,9.475,9.041,8.464c1.711-0.269,3.606,0.335,5.229-0.122
		c6.033-1.698,11.958,1.436,18.467-0.774c4.618-1.568,10.905,1.785,16.895,3.034c0,0.771,0,2.62,0,4.469
		c0.499,0.081,0.998,0.159,1.497,0.238c0.413-1.286,0.573-2.747,1.302-3.817c1.063-1.565,2.285-3.542,3.881-4.115
		c3.665-1.316,7.596-1.889,10.201-2.485c2.384,1.264,4.377,3.233,6.332,3.201C514.666,154.194,524.304,153.498,533.59,153.007z
		 M469.53,181.117c-3.797-4.502-8.308-6.096-13.858-4.331c-4.411,1.402-6.274-0.262-7.004-4.334
		c-0.126-0.697-0.493-1.354-0.874-2.357c-4.457,7.738-9.345,10.175-17.153,9.324c-7.359-0.804-14.745-1.655-22.134-1.818
		c-4.73-0.104-9.487,0.999-14.232,1.561c-0.048,0.456-0.096,0.91-0.145,1.364c0.802,0.176,1.678,0.649,2.395,0.477
		c4.624-1.128,9.291-4.842,13.702,0.579c0.272,0.333,1.593-0.2,2.431-0.308c4.584-0.595,9.185-1.759,13.75-1.64
		c7.527,0.197,15.413,3.049,20.368-4.013c2.801,1.158,5.517,3.388,7.218,2.778C459.89,176.29,464.787,177.529,469.53,181.117z"/>
	<path fill="#CB450F" d="M385.956,176.988c2.433,0.318,4.11,0.539,7.56,0.992c-3.373,2.378-5.464,3.853-7.557,5.332
		c-0.562-0.171-1.125-0.341-1.687-0.508c0-10.585,0-21.171,0-32.416c-9.925,5.041-19.354,3.546-28.485,4.285
		c-1.902,0.154-3.812,0.29-5.696,0.574c-3.294,0.496-6.552,1.387-9.859,1.606c-8.445,0.563-12.009-3.482-11.595-11.924
		c7.403,4.332,15.547-0.032,23.34,1.79c-7.232,0.574-14.463,1.148-21.748,1.729c1.771,6.486,4.945,8.378,13.139,6.664
		c4.985-1.043,9.689-3.436,14.984-5.395c-0.307,1.62-0.518,2.746-0.897,4.759c3.352-0.819,6.306-1.653,9.31-2.23
		c1.744-0.333,3.74-0.779,5.325-0.263c5.986,1.945,10.849-1.653,10.399-8.099c-0.267-3.835-0.761-7.654-0.8-11.53
		c1.678,5.564,3.356,11.131,5.208,17.277c10.162,0.601,20.885,1.234,32.039,1.894c1.307-12.695-0.656-24.042-4.252-35.246
		c0.679-0.087,1.358-0.176,2.039-0.264c1.327,8.908,2.922,17.788,3.901,26.734c0.894,8.156,0.599,8.188,8.871,8.606
		c-1.961,0.353-3.923,0.705-5.883,1.058c-0.169,0.556-0.336,1.109-0.504,1.665c3.928,1.48,7.857,2.961,11.785,4.442
		c-0.077,0.239-0.155,0.481-0.231,0.721c-4.219-1.234-8.438-2.466-13.041-3.812c0,2.602,0,5.091,0,7.681
		c-0.571-0.158-0.87-0.181-0.884-0.257c-2-10.597-2.002-10.396-12.775-10.579c-5.586-0.096-11.16-1.042-16.736-1.628
		c-3.651-0.386-6.472,0.529-6.341,4.819C385.098,162.585,385.578,169.693,385.956,176.988z"/>
	<path fill="#CB450F" d="M535.258,153.007c-9.286,0.491-18.923,1.188-28.571,1.353c-1.958,0.032-3.949-1.938-6.336-3.201
		c-2.604,0.597-6.535,1.169-10.199,2.484c-1.595,0.573-2.819,2.551-3.88,4.116c-0.729,1.07-0.889,2.531-1.304,3.817
		c-0.499-0.079-0.997-0.16-1.496-0.239c0-1.848,0-3.698,0-4.468c-5.989-1.249-12.275-4.603-16.895-3.034
		c-6.508,2.209-12.434-0.925-18.466,0.774c-1.622,0.457-3.518-0.146-5.229,0.122c-6.438,1.011-8.759-2.404-9.043-8.464
		c2.518,2.087,1.092,7.527,6.249,6.935c3.381-0.391,6.799-0.6,10.199-0.625c2.405-0.016,4.807,0.469,7.215,0.632
		c7.427,0.499,9.337-1.885,7.532-9.178c-0.114-0.458,0.572-1.118,2.284-1.621c0,2.114-0.216,4.254,0.05,6.335
		c0.425,3.35,1.158,6.004,5.968,5.04c3.796-0.759,7.952,0.423,11.844-0.081c2.168-0.279,4.117-2.241,6.199-3.462
		c3.524,4.224,4.092,3.886,11.084-6.896c0.227,0.218,0.648,0.432,0.657,0.663c0.379,9.298,0.374,9.205,9.793,9.027
		C520.518,152.894,528.127,153.007,535.258,153.007z"/>
	<path fill="#CB450F" d="M471.197,181.117c-4.742-3.588-9.641-4.827-15.536-2.718c-1.7,0.607-4.418-1.62-7.219-2.778
		c-4.955,7.062-12.841,4.21-20.367,4.013c-4.565-0.119-9.167,1.045-13.75,1.64c-0.837,0.107-2.158,0.641-2.43,0.308
		c-4.413-5.421-9.08-1.707-13.703-0.579c-0.717,0.173-1.592-0.301-2.394-0.477c0.048-0.454,0.098-0.908,0.145-1.364
		c4.745-0.562,9.501-1.665,14.232-1.561c7.388,0.163,14.774,1.015,22.134,1.818c7.809,0.851,12.697-1.586,17.153-9.324
		c0.381,1.003,0.748,1.66,0.873,2.357c0.73,4.072,2.594,5.736,7.006,4.334C462.893,175.021,467.4,176.615,471.197,181.117z"/>
</g>
</svg>
