<?xml version="1.0" encoding="utf-8"?>
<!-- Generator: Adobe Illustrator 22.0.1, SVG Export Plug-In . SVG Version: 6.00 Build 0)  -->
<svg version="1.1" id="Layer_1" xmlns="http://www.w3.org/2000/svg" xmlns:xlink="http://www.w3.org/1999/xlink" x="0px" y="0px"
	 viewBox="0 0 20 20" style="enable-background:new 0 0 20 20;" xml:space="preserve">
<style type="text/css">
	.st0{fill:#CB450F;}
	.st1{fill:#FFFFFF;}
	.st2{fill:#F2EEED;}
	.st3{font-family:'TopView';}
	.st4{font-size:19.2745px;}
</style>
<rect x="-183.5" y="-111" transform="matrix(2.939715e-02 -0.9996 0.9996 2.939715e-02 -69.2103 -214.7603)" class="st0" width="76.6" height="78.6"/>
<g>
	<path class="st0" d="M-107.5-31.7c0.2-0.6,5.3-16.1,5.3-37v-44H-185v44c0,19.9-5,35.1-5,35.3l-1.2,3.6h83.1L-107.5-31.7z
		 M-183.8-35.3c1.5-5.8,4.3-18.2,4.3-33.4v-38.6h72v38.6c0,15.9-3.2,28.8-4.5,33.4C-112-35.3-183.8-35.3-183.8-35.3z"/>
</g>
<g>
	<path class="st1" d="M-48.7-48.2c0-28.2,0-56.4,0-84.6c79.3,0,158.6,0,237.9,0c0,28.2,0,56.4,0,84.6
		C109.9-48.2,30.6-48.2-48.7-48.2z M35.6-67.3c-0.4-7.3-0.9-14.4-1.1-21.5c-0.1-4.3,2.7-5.2,6.3-4.8C46.4-93,52-92.1,57.6-92
		c10.8,0.2,10.8,0,12.8,10.6c0,0.1,0.3,0.1,0.9,0.3c0-2.6,0-5.1,0-7.7c4.6,1.3,8.8,2.6,13,3.8c0.1-0.2,0.2-0.5,0.2-0.7
		c-3.9-1.5-7.9-3-11.8-4.4c0.2-0.6,0.3-1.1,0.5-1.7c2-0.4,3.9-0.7,5.9-1.1c-8.3-0.4-8-0.4-8.9-8.6c-1-8.9-2.6-17.8-3.9-26.7
		c-0.7,0.1-1.4,0.2-2,0.3c3.6,11.2,5.6,22.6,4.3,35.2c-11.2-0.7-21.9-1.3-32-1.9c-1.9-6.1-3.5-11.7-5.2-17.3c0,3.9,0.5,7.7,0.8,11.5
		c0.5,6.4-4.4,10-10.4,8.1c-1.6-0.5-3.6-0.1-5.3,0.3c-3,0.6-6,1.4-9.3,2.2c0.4-2,0.6-3.1,0.9-4.8c-5.3,2-10,4.4-15,5.4
		c-8.2,1.7-11.4-0.2-13.1-6.7c7.3-0.6,14.5-1.2,21.7-1.7c-7.8-1.8-15.9,2.5-23.3-1.8C-22-91-18.5-86.9-10-87.5
		c3.3-0.2,6.6-1.1,9.9-1.6c1.9-0.3,3.8-0.4,5.7-0.6c9.1-0.7,18.6,0.8,28.5-4.3c0,11.2,0,21.8,0,32.4c0.6,0.2,1.1,0.3,1.7,0.5
		c2.1-1.5,4.2-3,7.6-5.3C39.7-66.8,38-67,35.6-67.3z M184.9-91.3c-7.1,0-14.7-0.1-22.3,0c-9.4,0.2-9.4,0.3-9.8-9
		c0-0.2-0.4-0.4-0.7-0.7c-7,10.8-7.6,11.1-11.1,6.9c-2.1,1.2-4,3.2-6.2,3.5c-3.9,0.5-8-0.7-11.8,0.1c-4.8,1-5.5-1.7-6-5
		c-0.3-2.1,0-4.2,0-6.3c-1.7,0.5-2.4,1.2-2.3,1.6c1.8,7.3-0.1,9.7-7.5,9.2c-2.4-0.2-4.8-0.6-7.2-0.6c-3.4,0-6.8,0.2-10.2,0.6
		c-5.2,0.6-3.7-4.8-6.2-6.9c0.3,6.1,2.6,9.5,9,8.5c1.7-0.3,3.6,0.3,5.2-0.1c6-1.7,12,1.4,18.5-0.8c4.6-1.6,10.9,1.8,16.9,3
		c0,0.8,0,2.6,0,4.5c0.5,0.1,1,0.2,1.5,0.2c0.4-1.3,0.6-2.7,1.3-3.8c1.1-1.6,2.3-3.5,3.9-4.1c3.7-1.3,7.6-1.9,10.2-2.5
		c2.4,1.3,4.4,3.2,6.3,3.2C166-90.1,175.6-90.8,184.9-91.3z M120.8-63.2c-3.8-4.5-8.3-6.1-13.9-4.3c-4.4,1.4-6.3-0.3-7-4.3
		c-0.1-0.7-0.5-1.4-0.9-2.4c-4.5,7.7-9.3,10.2-17.2,9.3c-7.4-0.8-14.7-1.7-22.1-1.8c-4.7-0.1-9.5,1-14.2,1.6c0,0.5-0.1,0.9-0.1,1.4
		c0.8,0.2,1.7,0.6,2.4,0.5c4.6-1.1,9.3-4.8,13.7,0.6c0.3,0.3,1.6-0.2,2.4-0.3c4.6-0.6,9.2-1.8,13.8-1.6c7.5,0.2,15.4,3,20.4-4
		c2.8,1.2,5.5,3.4,7.2,2.8C111.2-68,116.1-66.8,120.8-63.2z"/>
	<path class="st0" d="M37.3-67.3c2.4,0.3,4.1,0.5,7.6,1c-3.4,2.4-5.5,3.9-7.6,5.3c-0.6-0.2-1.1-0.3-1.7-0.5c0-10.6,0-21.2,0-32.4
		c-9.9,5-19.4,3.5-28.5,4.3c-1.9,0.2-3.8,0.3-5.7,0.6c-3.3,0.5-6.6,1.4-9.9,1.6c-8.4,0.6-12-3.5-11.6-11.9c7.4,4.3,15.5,0,23.3,1.8
		c-7.2,0.6-14.5,1.1-21.7,1.7c1.8,6.5,4.9,8.4,13.1,6.7c5-1,9.7-3.4,15-5.4c-0.3,1.6-0.5,2.7-0.9,4.8c3.4-0.8,6.3-1.7,9.3-2.2
		c1.7-0.3,3.7-0.8,5.3-0.3c6,1.9,10.8-1.7,10.4-8.1c-0.2-3.9-0.7-7.7-0.7-11.6c1.7,5.6,3.4,11.1,5.2,17.3c10.2,0.6,20.9,1.2,32,1.9
		c1.3-12.7-0.7-24-4.3-35.2c0.7-0.1,1.4-0.2,2-0.3c1.3,8.9,2.9,17.8,3.9,26.7c0.9,8.2,0.6,8.2,8.9,8.6c-2,0.4-3.9,0.7-5.9,1.1
		c-0.2,0.6-0.3,1.1-0.5,1.7c3.9,1.5,7.9,3,11.8,4.4c-0.1,0.2-0.2,0.5-0.2,0.7c-4.2-1.2-8.4-2.5-13-3.8c0,2.6,0,5.1,0,7.7
		c-0.6-0.2-0.9-0.2-0.9-0.3C70-92,70-91.8,59.3-92c-5.6-0.1-11.2-1-16.7-1.6c-3.7-0.4-6.5,0.5-6.3,4.8
		C36.4-81.7,36.9-74.6,37.3-67.3z"/>
	<path class="st0" d="M186.6-91.3c-9.3,0.5-18.9,1.2-28.6,1.4c-2,0-3.9-1.9-6.3-3.2c-2.6,0.6-6.5,1.2-10.2,2.5
		c-1.6,0.6-2.8,2.6-3.9,4.1c-0.7,1.1-0.9,2.5-1.3,3.8c-0.5-0.1-1-0.2-1.5-0.2c0-1.8,0-3.7,0-4.5c-6-1.2-12.3-4.6-16.9-3
		c-6.5,2.2-12.4-0.9-18.5,0.8c-1.6,0.5-3.5-0.1-5.2,0.1c-6.4,1-8.8-2.4-9-8.5c2.5,2.1,1.1,7.5,6.2,6.9c3.4-0.4,6.8-0.6,10.2-0.6
		c2.4,0,4.8,0.5,7.2,0.6c7.4,0.5,9.3-1.9,7.5-9.2c-0.1-0.5,0.6-1.1,2.3-1.6c0,2.1-0.2,4.3,0,6.3c0.4,3.4,1.2,6,6,5
		c3.8-0.8,8,0.4,11.8-0.1c2.2-0.3,4.1-2.2,6.2-3.5c3.5,4.2,4.1,3.9,11.1-6.9c0.2,0.2,0.6,0.4,0.7,0.7c0.4,9.3,0.4,9.2,9.8,9
		C171.8-91.4,179.4-91.3,186.6-91.3z"/>
	<path class="st0" d="M122.5-63.2c-4.7-3.6-9.6-4.8-15.5-2.7c-1.7,0.6-4.4-1.6-7.2-2.8c-5,7.1-12.8,4.2-20.4,4
		c-4.6-0.1-9.2,1-13.8,1.6c-0.8,0.1-2.2,0.6-2.4,0.3c-4.4-5.4-9.1-1.7-13.7-0.6c-0.7,0.2-1.6-0.3-2.4-0.5c0-0.5,0.1-0.9,0.1-1.4
		c4.7-0.6,9.5-1.7,14.2-1.6c7.4,0.2,14.8,1,22.1,1.8c7.8,0.9,12.7-1.6,17.2-9.3c0.4,1,0.7,1.7,0.9,2.4c0.7,4.1,2.6,5.7,7,4.3
		C114.2-69.3,118.7-67.7,122.5-63.2z"/>
</g>
<path class="st2" d="M-141.4-56c1.7,0.2,2.8,0.4,5.2,0.7c-2.3,1.6-3.8,2.7-5.2,3.7c-0.4-0.1-0.8-0.2-1.2-0.4c0-7.3,0-14.6,0-22.4
	c-6.9,3.5-13.4,2.4-19.7,3c-1.3,0.1-2.6,0.2-3.9,0.4c-2.3,0.3-4.5,1-6.8,1.1c-5.8,0.4-8.3-2.4-8-8.2c5.1,3,10.7,0,16.1,1.2
	c-5,0.4-10,0.8-15,1.2c1.2,4.5,3.4,5.8,9.1,4.6c3.4-0.7,6.7-2.4,10.3-3.7c-0.2,1.1-0.4,1.9-0.6,3.3c2.3-0.6,4.4-1.1,6.4-1.5
	c1.2-0.2,2.6-0.5,3.7-0.2c4.1,1.3,7.5-1.1,7.2-5.6c-0.2-2.6-0.5-5.3-0.6-8c1.2,3.8,2.3,7.7,3.6,11.9c7,0.4,14.4,0.9,22.1,1.3
	c0.9-8.8-0.5-16.6-2.9-24.3c0.5-0.1,0.9-0.1,1.4-0.2c0.9,6.1,2,12.3,2.7,18.4c0.6,5.6,0.4,5.6,6.1,5.9c-1.4,0.2-2.7,0.5-4.1,0.7
	c-0.1,0.4-0.2,0.8-0.3,1.1c2.7,1,5.4,2,8.1,3.1c-0.1,0.2-0.1,0.3-0.2,0.5c-2.9-0.9-5.8-1.7-9-2.6c0,1.8,0,3.5,0,5.3
	c-0.4-0.1-0.6-0.1-0.6-0.2c-1.4-7.3-1.4-7.2-8.8-7.3c-3.9-0.1-7.7-0.7-11.5-1.1c-2.5-0.3-4.5,0.4-4.4,3.3
	C-142-65.9-141.7-61-141.4-56z"/>
<text transform="matrix(1 0 0 1 0.9814 19.0729)" class="st1 st3 st4">T</text>
</svg>
