<?xml version="1.0" encoding="utf-8"?>
<!-- Generator: Adobe Illustrator 16.0.0, SVG Export Plug-In . SVG Version: 6.00 Build 0)  -->
<!DOCTYPE svg PUBLIC "-//W3C//DTD SVG 1.1//EN" "http://www.w3.org/Graphics/SVG/1.1/DTD/svg11.dtd">
<svg version="1.1" id="Layer_1" xmlns="http://www.w3.org/2000/svg" xmlns:xlink="http://www.w3.org/1999/xlink" x="0px" y="0px"
	 width="100px" height="100px" viewBox="200 300 100 100" enable-background="new 200 300 100 100" xml:space="preserve">
<rect x="212.255" y="311.237" transform="matrix(0.9996 0.0294 -0.0294 0.9996 10.3856 -7.2449)" fill="#CB450F" width="78.584" height="76.578"/>
<g>
	<path fill="#CB450F" d="M289.203,389.556c0.22-0.648,5.298-16.135,5.298-36.974v-43.983h-82.799v43.983
		c0,19.912-4.97,35.113-5.021,35.264l-1.181,3.556h83.088L289.203,389.556z M212.846,385.996c1.547-5.808,4.263-18.184,4.263-33.414
		v-38.578h71.99v38.578c0,15.889-3.165,28.777-4.469,33.414H212.846z"/>
</g>
<g>
	<path fill="#FFFFFF" d="M191.312,291.805c0-28.195,0-56.39,0-84.585c79.299,0,158.597,0,237.896,0c0,28.195,0,56.39,0,84.585
		C349.909,291.805,270.611,291.805,191.312,291.805z M275.602,272.708c-0.379-7.295-0.858-14.403-1.074-21.522
		c-0.129-4.29,2.69-5.205,6.342-4.819c5.576,0.586,11.149,1.532,16.736,1.628c10.771,0.184,10.775-0.018,12.774,10.579
		c0.015,0.076,0.313,0.099,0.885,0.257c0-2.59,0-5.079,0-7.681c4.603,1.347,8.82,2.578,13.04,3.812
		c0.076-0.239,0.153-0.481,0.231-0.721c-3.929-1.481-7.857-2.962-11.785-4.442c0.168-0.556,0.335-1.109,0.503-1.665
		c1.961-0.353,3.924-0.705,5.884-1.058c-8.272-0.418-7.978-0.45-8.87-8.606c-0.981-8.947-2.577-17.827-3.901-26.734
		c-0.681,0.088-1.361,0.176-2.04,0.264c3.595,11.204,5.559,22.551,4.253,35.246c-11.155-0.659-21.878-1.293-32.039-1.894
		c-1.853-6.146-3.53-11.713-5.209-17.277c0.039,3.876,0.534,7.694,0.8,11.53c0.451,6.446-4.412,10.044-10.398,8.099
		c-1.584-0.517-3.58-0.07-5.324,0.263c-3.004,0.577-5.958,1.411-9.311,2.23c0.38-2.013,0.592-3.138,0.898-4.759
		c-5.295,1.959-10,4.352-14.984,5.395c-8.193,1.715-11.369-0.178-13.139-6.664c7.285-0.58,14.516-1.154,21.748-1.729
		c-7.793-1.822-15.938,2.542-23.34-1.79c-0.414,8.442,3.148,12.488,11.595,11.924c3.307-0.22,6.565-1.11,9.858-1.606
		c1.885-0.284,3.795-0.42,5.697-0.574c9.131-0.739,18.56,0.756,28.484-4.285c0,11.245,0,21.831,0,32.416
		c0.562,0.167,1.125,0.337,1.688,0.508c2.093-1.479,4.184-2.954,7.557-5.332C279.71,273.247,278.034,273.026,275.602,272.708z
		 M424.902,248.727c-7.13,0-14.74-0.113-22.345,0.029c-9.418,0.178-9.411,0.271-9.79-9.027c-0.01-0.229-0.433-0.444-0.658-0.663
		c-6.993,10.781-7.561,11.119-11.084,6.896c-2.083,1.221-4.033,3.185-6.201,3.462c-3.891,0.504-8.046-0.678-11.842,0.081
		c-4.809,0.964-5.543-1.69-5.97-5.039c-0.265-2.081-0.049-4.221-0.049-6.335c-1.711,0.502-2.398,1.162-2.285,1.62
		c1.807,7.293-0.105,9.677-7.529,9.178c-2.411-0.163-4.812-0.647-7.216-0.632c-3.402,0.025-6.82,0.234-10.199,0.625
		c-5.158,0.594-3.731-4.847-6.249-6.935c0.283,6.062,2.604,9.475,9.041,8.464c1.711-0.269,3.606,0.335,5.229-0.122
		c6.033-1.698,11.958,1.436,18.467-0.774c4.618-1.568,10.905,1.785,16.895,3.034c0,0.771,0,2.62,0,4.469
		c0.499,0.081,0.998,0.159,1.497,0.238c0.413-1.286,0.573-2.747,1.302-3.817c1.063-1.565,2.285-3.542,3.881-4.115
		c3.665-1.316,7.596-1.889,10.201-2.485c2.384,1.264,4.377,3.233,6.332,3.201C405.979,249.914,415.616,249.218,424.902,248.727z
		 M360.843,276.837c-3.797-4.502-8.308-6.096-13.858-4.331c-4.411,1.402-6.274-0.262-7.004-4.334
		c-0.126-0.697-0.493-1.354-0.874-2.357c-4.457,7.738-9.345,10.175-17.153,9.324c-7.359-0.804-14.745-1.655-22.134-1.818
		c-4.73-0.104-9.487,0.999-14.232,1.561c-0.048,0.456-0.096,0.91-0.145,1.364c0.802,0.176,1.678,0.649,2.396,0.477
		c4.623-1.128,9.29-4.842,13.701,0.579c0.271,0.333,1.593-0.2,2.431-0.308c4.584-0.595,9.185-1.759,13.75-1.64
		c7.527,0.197,15.413,3.049,20.368-4.013c2.801,1.158,5.517,3.388,7.218,2.778C351.202,272.01,356.1,273.249,360.843,276.837z"/>
	<path fill="#CB450F" d="M277.269,272.708c2.433,0.318,4.11,0.539,7.56,0.992c-3.373,2.378-5.465,3.853-7.557,5.332
		c-0.562-0.171-1.125-0.341-1.688-0.508c0-10.585,0-21.171,0-32.416c-9.925,5.041-19.354,3.546-28.484,4.285
		c-1.902,0.154-3.812,0.29-5.697,0.574c-3.294,0.496-6.552,1.387-9.858,1.606c-8.445,0.563-12.009-3.482-11.595-11.924
		c7.402,4.332,15.547-0.032,23.34,1.79c-7.232,0.574-14.463,1.148-21.748,1.729c1.77,6.486,4.945,8.378,13.139,6.664
		c4.984-1.043,9.689-3.436,14.984-5.395c-0.307,1.62-0.518,2.746-0.898,4.759c3.352-0.819,6.307-1.653,9.311-2.23
		c1.744-0.333,3.739-0.779,5.324-0.263c5.986,1.945,10.849-1.653,10.398-8.099c-0.267-3.835-0.761-7.654-0.799-11.53
		c1.678,5.564,3.355,11.131,5.207,17.277c10.162,0.601,20.885,1.234,32.039,1.894c1.307-12.695-0.656-24.042-4.252-35.246
		c0.68-0.087,1.358-0.176,2.039-0.264c1.327,8.908,2.922,17.788,3.901,26.734c0.894,8.156,0.599,8.188,8.871,8.606
		c-1.961,0.353-3.923,0.705-5.883,1.058c-0.169,0.556-0.336,1.109-0.504,1.665c3.928,1.48,7.857,2.961,11.785,4.442
		c-0.077,0.239-0.155,0.481-0.231,0.721c-4.219-1.234-8.438-2.466-13.041-3.812c0,2.602,0,5.091,0,7.681
		c-0.571-0.158-0.87-0.181-0.884-0.257c-2-10.597-2.002-10.396-12.774-10.579c-5.587-0.096-11.16-1.042-16.736-1.628
		c-3.651-0.386-6.472,0.529-6.342,4.819C276.41,258.305,276.891,265.413,277.269,272.708z"/>
	<path fill="#CB450F" d="M426.57,248.727c-9.286,0.491-18.923,1.188-28.571,1.353c-1.958,0.032-3.949-1.938-6.336-3.201
		c-2.604,0.597-6.535,1.169-10.199,2.484c-1.595,0.573-2.819,2.551-3.88,4.116c-0.729,1.07-0.889,2.531-1.304,3.817
		c-0.499-0.079-0.997-0.16-1.496-0.239c0-1.848,0-3.698,0-4.468c-5.989-1.249-12.275-4.603-16.895-3.034
		c-6.508,2.209-12.434-0.925-18.466,0.774c-1.622,0.457-3.518-0.146-5.229,0.122c-6.438,1.011-8.759-2.404-9.043-8.464
		c2.518,2.087,1.092,7.527,6.249,6.935c3.381-0.391,6.799-0.6,10.199-0.625c2.405-0.016,4.807,0.469,7.215,0.632
		c7.427,0.499,9.337-1.885,7.532-9.178c-0.114-0.458,0.572-1.118,2.284-1.621c0,2.114-0.216,4.254,0.05,6.335
		c0.425,3.35,1.158,6.004,5.968,5.04c3.796-0.759,7.952,0.423,11.844-0.081c2.168-0.279,4.117-2.241,6.199-3.462
		c3.524,4.224,4.092,3.886,11.084-6.896c0.227,0.218,0.648,0.432,0.657,0.663c0.379,9.298,0.374,9.205,9.793,9.027
		C411.83,248.613,419.439,248.727,426.57,248.727z"/>
	<path fill="#CB450F" d="M362.51,276.837c-4.742-3.588-9.641-4.827-15.536-2.718c-1.7,0.607-4.418-1.62-7.219-2.778
		c-4.955,7.062-12.841,4.21-20.367,4.013c-4.565-0.119-9.167,1.045-13.75,1.64c-0.837,0.107-2.158,0.641-2.431,0.308
		c-4.412-5.421-9.079-1.707-13.703-0.579c-0.717,0.173-1.592-0.301-2.394-0.477c0.048-0.454,0.098-0.908,0.145-1.364
		c4.745-0.562,9.501-1.665,14.231-1.561c7.389,0.163,14.774,1.015,22.135,1.818c7.809,0.851,12.697-1.586,17.153-9.324
		c0.381,1.003,0.748,1.66,0.873,2.357c0.73,4.072,2.594,5.736,7.006,4.334C354.205,270.741,358.713,272.335,362.51,276.837z"/>
</g>
<path fill="#F2EEED" d="M255.255,365.315c1.68,0.22,2.837,0.372,5.218,0.683c-2.328,1.643-3.771,2.659-5.216,3.682
	c-0.388-0.118-0.775-0.235-1.163-0.351c0-7.305,0-14.609,0-22.369c-6.85,3.479-13.355,2.447-19.656,2.957
	c-1.313,0.106-2.63,0.199-3.931,0.396c-2.273,0.343-4.521,0.957-6.803,1.109c-5.828,0.389-8.286-2.403-8.001-8.229
	c5.108,2.989,10.729-0.022,16.105,1.235c-4.99,0.396-9.98,0.792-15.007,1.192c1.221,4.476,3.413,5.781,9.066,4.599
	c3.439-0.72,6.686-2.37,10.34-3.723c-0.212,1.117-0.358,1.895-0.621,3.283c2.313-0.564,4.352-1.141,6.425-1.539
	c1.203-0.229,2.58-0.538,3.673-0.181c4.131,1.343,7.486-1.142,7.176-5.589c-0.185-2.646-0.524-5.282-0.551-7.957
	c1.157,3.84,2.315,7.682,3.594,11.922c7.011,0.415,14.41,0.852,22.107,1.307c0.902-8.76-0.453-16.589-2.935-24.321
	c0.47-0.06,0.938-0.121,1.408-0.182c0.915,6.147,2.016,12.274,2.691,18.448c0.616,5.627,0.413,5.65,6.121,5.939
	c-1.354,0.243-2.706,0.486-4.06,0.729c-0.116,0.385-0.231,0.766-0.348,1.148c2.712,1.022,5.422,2.044,8.133,3.066
	c-0.053,0.165-0.106,0.332-0.159,0.496c-2.911-0.85-5.823-1.699-8.999-2.63c0,1.795,0,3.512,0,5.302
	c-0.396-0.11-0.601-0.126-0.611-0.179c-1.379-7.312-1.38-7.174-8.813-7.3c-3.855-0.066-7.701-0.72-11.55-1.124
	c-2.519-0.266-4.465,0.364-4.375,3.325C254.663,355.377,254.996,360.281,255.255,365.315z"/>
</svg>
